HIERARCHY
ROOT Hips
{
	OFFSET 0.00 0.00 0.00
	CHANNELS 6 Xposition Yposition Zposition Xrotation Yrotation Zrotation
	JOINT Spine
	{
		OFFSET 0.00000 7.17041 0.00000
		CHANNELS 3 Xrotation Yrotation Zrotation
		JOINT Head
		{
			OFFSET 0.00000 14.27615 0.00000
			CHANNELS 3 Xrotation Yrotation Zrotation
			End Site
			{
				OFFSET 0.00000 4.52755 0.00000
			}
		}
		JOINT LeftShoulder
		{
			OFFSET 0.00000 10.71824 0.00000
			CHANNELS 3 Xrotation Yrotation Zrotation
			JOINT LeftArm
			{
				OFFSET 7.05887 0.00000 0.00000
				CHANNELS 3 Xrotation Yrotation Zrotation
				JOINT LeftForeArm
				{
					OFFSET 10.95552 0.00000 0.00000
					CHANNELS 3 Yrotation Zrotation Xrotation
					JOINT LeftHand
					{
						OFFSET 8.19372 0.00000 0.00000
						CHANNELS 3 Xrotation Yrotation Zrotation
						JOINT LeftHandThumb1
						{
							OFFSET 0.00000 0.00000 0.00000
							CHANNELS 3 Xrotation Zrotation Yrotation
							End Site
							{
								OFFSET 0.00000 0.00000 3.93700
							}
						}
						End Site
						{
							OFFSET 3.93700 0.00000 0.00000
						}
					}
				}
			}
		}
		JOINT RightShoulder
		{
			OFFSET 0.00000 10.71824 0.00000
			CHANNELS 3 Xrotation Yrotation Zrotation
			JOINT RightArm
			{
				OFFSET -7.05887 0.00000 0.00000
				CHANNELS 3 Xrotation Yrotation Zrotation
				JOINT RightForeArm
				{
					OFFSET -10.95552 0.00000 0.00000
					CHANNELS 3 Yrotation Zrotation Xrotation
					JOINT RightHand
					{
						OFFSET -8.19372 0.00000 0.00000
						CHANNELS 3 Xrotation Yrotation Zrotation
						JOINT RightHandThumb1
						{
							OFFSET 0.00000 0.00000 0.00000
							CHANNELS 3 Xrotation Zrotation Yrotation
							End Site
							{
								OFFSET 0.00000 0.00000 3.93700
							}
						}
						End Site
						{
							OFFSET -3.93700 0.00000 0.00000
						}
					}
				}
			}
		}
	}
	JOINT LeftUpLeg
	{
		OFFSET 4.31835 0.00000 0.00000
		CHANNELS 3 Xrotation Yrotation Zrotation
		JOINT LeftLeg
		{
			OFFSET 0.00000 -17.32364 0.00000
			CHANNELS 3 Xrotation Yrotation Zrotation
			JOINT LeftFoot
			{
				OFFSET 0.00000 -16.27037 0.00000
				CHANNELS 3 Xrotation Yrotation Zrotation
				JOINT LeftToeBase
				{
					OFFSET 0.00000 -1.27412 4.75510
					CHANNELS 3 Xrotation Yrotation Zrotation
					End Site
					{
						OFFSET 0.00000 0.00000 2.95275
					}
				}
			}
		}
	}
	JOINT RightUpLeg
	{
		OFFSET -4.31835 0.00000 0.00000
		CHANNELS 3 Xrotation Yrotation Zrotation
		JOINT RightLeg
		{
			OFFSET 0.00000 -17.32364 0.00000
			CHANNELS 3 Xrotation Yrotation Zrotation
			JOINT RightFoot
			{
				OFFSET 0.00000 -16.27037 0.00000
				CHANNELS 3 Xrotation Yrotation Zrotation
				JOINT RightToeBase
				{
					OFFSET 0.00000 -1.27412 4.75510
					CHANNELS 3 Xrotation Yrotation Zrotation
					End Site
					{
						OFFSET 0.00000 0.00000 2.95275
					}
				}
			}
		}
	}
}
MOTION
Frames: 11
Frame Time: 0.008333
 -5.9089 35.5478 -8.5315 -4.5739 -8.5546 -5.4765 -1.0056 0.4564 9.1742 7.3696 8.8378 -10.5733 13.2134 26.1193 3.8636 -59.6983 -0.0503 -17.2916 -4.9366 0.0000 22.3990 0.7086 8.1099 -5.0105 33.1476 -0.0000 26.2537 -15.6787 -3.0747 -21.8529 -12.7274 -5.8102 16.2054 16.6541 -0.0000 35.6683 1.3042 -5.2016 14.0966 32.8623 0.0000 -24.3270 11.2955 17.0995 4.4096 -0.9040 -0.0000 0.0000 -15.6270 30.6772 4.8052 18.0875 0.0000 0.0000 9.7902 -5.8225 1.7036 1.2075 0.0000 0.0000 -4.2812 -22.5421 1.3843 9.4466 -0.0000 -0.0000
 -5.9195 35.5289 -8.5454 -4.4998 -8.6731 -5.4729 -1.1115 0.4982 9.1468 7.5299 8.8507 -10.5484 13.2545 26.1684 3.8646 -59.7381 -0.1088 -17.2475 -5.0171 0.0000 22.4133 0.6998 8.1388 -4.9312 33.1476 -0.0000 26.2537 -15.6837 -3.0298 -21.8580 -12.6349 -5.7409 16.1851 16.7583 -0.0000 35.5358 1.3062 -5.2925 13.8847 32.8623 0.0000 -24.3270 11.4264 17.2352 4.3537 -1.3319 -0.0000 -0.0000 -15.5843 30.7079 4.7841 18.1689 0.0000 -0.0000 9.8148 -5.7792 1.7158 0.9476 -0.0000 0.0000 -4.4146 -22.4424 1.3666 9.6937 0.0000 -0.0000
 -5.9295 35.5065 -8.5573 -4.4657 -8.8011 -5.4499 -1.1656 0.5845 9.0860 7.6514 8.8389 -10.5036 13.2298 26.1829 3.8832 -59.7328 -0.1961 -17.1787 -5.0676 0.0000 22.3670 0.6807 8.1010 -4.8190 33.1476 -0.0000 26.2537 -15.6532 -3.0271 -21.8658 -12.6667 -5.7283 16.1669 16.9190 -0.0000 35.6484 1.2987 -5.3474 13.6724 32.8623 0.0000 -24.3270 11.5987 17.4281 4.2654 -1.7484 0.0000 0.0000 -15.5841 30.7080 4.7635 18.2997 0.0000 -0.0000 9.8942 -5.7507 1.7060 0.6586 -0.0000 0.0000 -4.6072 -22.3284 1.2720 10.0044 0.0000 -0.0000
 -5.9376 35.4798 -8.5769 -4.3684 -8.9510 -5.4133 -1.2760 0.6735 9.0154 7.7476 8.8295 -10.4429 13.2064 26.2277 3.9166 -59.7717 -0.2533 -17.1342 -5.1434 0.0000 22.3950 0.6652 8.0664 -4.7299 33.1476 -0.0000 26.2537 -15.6039 -3.0655 -21.8194 -12.7630 -5.6262 16.0980 17.0003 -0.0000 35.6920 1.2711 -5.2450 13.6426 32.8623 0.0000 -24.3270 11.7126 17.5833 4.1714 -2.1698 -0.0000 -0.0000 -15.6180 30.7147 4.7276 18.4983 0.0000 -0.0000 9.8905 -5.6609 1.6878 0.3781 -0.0000 0.0000 -4.8194 -22.2507 1.1459 10.3062 0.0000 -0.0000
 -5.9473 35.4504 -8.5966 -4.2849 -9.0595 -5.3725 -1.3626 0.7283 8.9308 7.8514 8.8098 -10.3976 13.2281 26.2500 3.9364 -59.8488 -0.2932 -17.0651 -5.2140 0.0000 22.3732 0.6472 8.0605 -4.6062 33.1476 -0.0000 26.2537 -15.6154 -3.0707 -21.7805 -12.7200 -5.5347 16.0465 17.1230 -0.0000 35.6603 1.2985 -5.3627 13.6324 32.8623 0.0000 -24.3270 11.8297 17.7071 4.0834 -2.5813 0.0000 -0.0000 -15.6820 30.7169 4.6793 18.6654 0.0000 -0.0000 9.9174 -5.5680 1.6782 0.0858 -0.0000 -0.0000 -5.1026 -22.2217 0.9975 10.7166 0.0000 -0.0000
 -5.9606 35.4185 -8.6189 -4.1976 -9.1749 -5.3434 -1.4409 0.7930 8.8487 7.9071 8.8215 -10.3186 13.2565 26.2910 3.9311 -59.8829 -0.4016 -16.9955 -5.2573 0.0000 22.2885 0.6229 7.9896 -4.4728 33.1476 -0.0000 26.2537 -15.6314 -3.0740 -21.7442 -12.6649 -5.4761 16.0130 17.2850 -0.0000 35.6225 1.2939 -5.4535 13.3686 32.8623 0.0000 -24.3270 11.9368 17.8748 4.0129 -2.9958 -0.0000 -0.0000 -15.7424 30.6545 4.6882 18.7984 -0.0000 0.0000 9.9557 -5.4782 1.6866 -0.2416 -0.0000 -0.0000 -5.3692 -22.1557 0.7950 11.0829 -0.0000 0.0000
 -5.9722 35.3841 -8.6435 -4.1002 -9.2789 -5.2960 -1.5215 0.8453 8.7465 7.9665 8.8406 -10.2406 13.2329 26.3133 3.9681 -59.8978 -0.4480 -16.9238 -5.3396 0.0000 22.2254 0.5866 7.9899 -4.2131 33.1476 -0.0000 26.2537 -15.5455 -3.1299 -21.6886 -12.7814 -5.4320 15.9656 17.4597 -0.0000 35.5920 1.2866 -5.4540 13.2949 32.8623 0.0000 -24.3270 12.0576 17.9638 3.9194 -3.4430 0.0000 0.0000 -15.7877 30.6934 4.6057 18.8606 -0.0000 0.0000 9.9715 -5.3321 1.6824 -0.5447 -0.0000 -0.0000 -5.7199 -22.1852 0.5449 11.5197 -0.0000 0.0000
 -5.9825 35.3484 -8.6707 -4.0099 -9.3425 -5.2591 -1.5641 0.8505 8.6671 7.9770 8.8680 -10.1833 13.2733 26.3584 3.9465 -60.0273 -0.4785 -16.8671 -5.4468 0.0000 22.2385 0.5705 8.0016 -4.0917 33.1476 -0.0000 26.2537 -15.5437 -3.1519 -21.6532 -12.7629 -5.3669 15.9451 17.6225 -0.0000 35.5794 1.2891 -5.5239 13.1578 32.8623 0.0000 -24.3270 12.1434 18.0409 3.8568 -3.8465 -0.0000 -0.0000 -15.9966 30.6417 4.6929 19.3776 0.0000 -0.0000 9.9894 -5.2023 1.6811 -0.8185 0.0000 0.0000 -6.0610 -22.1573 0.2234 11.9591 -0.0000 0.0000
 -5.9945 35.3118 -8.7011 -3.8862 -9.4388 -5.2321 -1.6504 0.8829 8.6017 7.9974 8.8892 -10.1308 13.3056 26.4224 3.9243 -60.0578 -0.5737 -16.8324 -5.5002 0.0000 22.1656 0.5537 8.0225 -3.9613 33.1476 -0.0000 26.2537 -15.5940 -3.1221 -21.6371 -12.7328 -5.3951 15.9501 17.8341 -0.0000 35.6905 1.2504 -5.4783 12.8784 32.8623 0.0000 -24.3270 12.1988 18.1398 3.7980 -4.2499 -0.0000 -0.0000 -16.1248 30.6086 4.6775 19.5267 0.0000 0.0000 9.9540 -4.9556 1.7040 -1.0774 0.0000 -0.0000 -6.4394 -22.2471 -0.1986 12.4733 -0.0000 -0.0000
 -6.0079 35.2781 -8.7311 -3.8100 -9.5150 -5.2605 -1.6576 0.9047 8.6097 7.9745 8.9105 -10.1166 13.3284 26.4771 3.8591 -60.1150 -0.6374 -16.8015 -5.5916 0.0000 22.0898 0.5432 8.0626 -3.8670 33.1476 -0.0000 26.2537 -15.5541 -3.1716 -21.6017 -12.7955 -5.3410 15.9286 17.9887 -0.0000 35.7434 1.2276 -5.4722 12.6645 32.8623 0.0000 -24.3270 12.2694 18.2645 3.7956 -4.6376 0.0000 0.0000 -16.3026 30.5570 4.7418 19.7952 -0.0000 0.0000 9.9694 -4.7008 1.7761 -1.3346 0.0000 -0.0000 -6.6960 -22.3355 -0.6365 12.7315 0.0000 -0.0000
 -6.0274 35.2490 -8.7632 -3.7461 -9.5081 -5.3713 -1.6404 0.8426 8.7238 7.9650 8.9582 -10.1419 13.4823 26.5196 3.6726 -60.2834 -0.7297 -16.7520 -5.6545 0.0000 22.0759 0.5285 8.0823 -3.7536 33.1476 -0.0000 26.2537 -15.5172 -3.2031 -21.5789 -12.7856 -5.2670 15.9109 18.1206 -0.0000 35.7194 1.2254 -5.5601 12.4496 32.8623 0.0000 -24.3270 12.3003 18.3391 3.9182 -5.0045 -0.0000 0.0000 -16.5682 30.4341 4.9545 20.3718 0.0000 -0.0000 10.0198 -4.4591 1.9539 -1.6152 0.0000 0.0000 -6.8323 -22.4850 -1.0661 13.0009 -0.0000 -0.0000
